<svg width="9" height="78" viewBox="0 0 9 78" fill="none" xmlns="http://www.w3.org/2000/svg">
<path d="M1 0.83L8.05 0.83L8.05 3.82C8.05 4.57333 7.86667 5.15 7.5 5.55C7.14 5.95667 6.64 6.16 6 6.16C5.36 6.16 4.85667 5.95667 4.49 5.55C4.12333 5.15 3.94 4.57333 3.94 3.82L3.94 1.87L1 1.87L1 0.83ZM4.77 1.87L4.77 3.71C4.77 4.18333 4.87667 4.54 5.09 4.78C5.30333 5.02 5.60667 5.14 6 5.14C6.38667 5.14 6.68667 5.02 6.9 4.78C7.11333 4.54 7.22 4.18333 7.22 3.71L7.22 1.87L4.77 1.87ZM1 7.20437L4.79 7.20437C4.99667 7.20437 5.20333 7.19771 5.41 7.18437C5.62333 7.17771 5.83333 7.16437 6.04 7.14437L6.04 8.12437L4.74 8.23437L4.74 8.07437C5.05333 8.14104 5.31333 8.25437 5.52 8.41437C5.72667 8.57437 5.88 8.76771 5.98 8.99437C6.08 9.22771 6.13 9.47104 6.13 9.72437C6.13 9.83104 6.12333 9.92104 6.11 9.99437C6.10333 10.0677 6.09 10.141 6.07 10.2144L5.17 10.2044C5.21667 10.091 5.24333 9.99104 5.25 9.90437C5.26333 9.82437 5.27 9.72437 5.27 9.60437C5.27 9.31104 5.20333 9.06104 5.07 8.85437C4.94333 8.64771 4.77 8.49104 4.55 8.38437C4.33 8.27771 4.09333 8.22437 3.84 8.22437L1 8.22437L1 7.20437ZM0.909999 13.0855C0.909999 12.5855 1.01333 12.1522 1.22 11.7855C1.43333 11.4189 1.73333 11.1355 2.12 10.9355C2.51333 10.7355 2.98 10.6355 3.52 10.6355C4.06 10.6355 4.52333 10.7355 4.91 10.9355C5.30333 11.1355 5.60333 11.4189 5.81 11.7855C6.02333 12.1522 6.13 12.5855 6.13 13.0855C6.13 13.5855 6.02333 14.0189 5.81 14.3855C5.60333 14.7589 5.30333 15.0455 4.91 15.2455C4.52333 15.4522 4.06 15.5555 3.52 15.5555C2.98 15.5555 2.51333 15.4522 2.12 15.2455C1.73333 15.0455 1.43333 14.7589 1.22 14.3855C1.01333 14.0189 0.909999 13.5855 0.909999 13.0855ZM1.7 13.0855C1.7 13.5255 1.85333 13.8755 2.16 14.1355C2.46667 14.3955 2.92 14.5255 3.52 14.5255C4.12 14.5255 4.57 14.3955 4.87 14.1355C5.17667 13.8755 5.33 13.5255 5.33 13.0855C5.33 12.6522 5.17667 12.3055 4.87 12.0455C4.57 11.7855 4.12 11.6555 3.52 11.6555C2.92 11.6555 2.46667 11.7822 2.16 12.0355C1.85333 12.2955 1.7 12.6455 1.7 13.0855ZM0.909999 19.4261C0.909999 18.9861 1.02 18.6028 1.24 18.2761C1.46 17.9494 1.76 17.7328 2.14 17.6261L2.14 17.7361L0.999999 17.7361L0.999999 16.7361L8.36 16.7361L8.36 17.7461L4.92 17.7461L4.92 17.6261C5.29333 17.7394 5.58667 17.9561 5.8 18.2761C6.02 18.6028 6.13 18.9861 6.13 19.4261C6.13 19.8728 6.02333 20.2628 5.81 20.5961C5.60333 20.9294 5.30333 21.1861 4.91 21.3661C4.52333 21.5528 4.05667 21.6461 3.51 21.6461C2.97 21.6461 2.50333 21.5528 2.11 21.3661C1.72333 21.1861 1.42667 20.9261 1.22 20.5861C1.01333 20.2528 0.909999 19.8661 0.909999 19.4261ZM1.7 19.1761C1.7 19.6094 1.85 19.9594 2.15 20.2261C2.45667 20.4928 2.91 20.6261 3.51 20.6261C4.11667 20.6261 4.57 20.4928 4.87 20.2261C5.17667 19.9594 5.33 19.6094 5.33 19.1761C5.33 18.7361 5.17667 18.3828 4.87 18.1161C4.57 17.8561 4.12 17.7261 3.52 17.7261C2.92 17.7261 2.46667 17.8561 2.16 18.1161C1.85333 18.3828 1.7 18.7361 1.7 19.1761ZM0.999999 22.8298L8.36 22.8298L8.36 23.8398L0.999999 23.8398L0.999999 22.8298ZM0.909999 27.6501C0.909999 26.8367 1.14 26.1967 1.6 25.7301C2.06 25.2634 2.69667 25.0301 3.51 25.0301C4.03667 25.0301 4.49667 25.1301 4.89 25.3301C5.28333 25.5367 5.58667 25.8201 5.8 26.1801C6.02 26.5467 6.13 26.9701 6.13 27.4501C6.13 27.9234 6.03 28.3201 5.83 28.6401C5.63 28.9601 5.34667 29.2034 4.98 29.3701C4.62 29.5367 4.19333 29.6201 3.7 29.6201L3.38 29.6201L3.38 25.8201L3.96 25.8201L3.96 28.9301L3.83 28.7601C4.33 28.7601 4.71667 28.6467 4.99 28.4201C5.27 28.2001 5.41 27.8801 5.41 27.4601C5.41 26.9934 5.24667 26.6334 4.92 26.3801C4.6 26.1267 4.15667 26.0001 3.59 26.0001L3.49 26.0001C2.89667 26.0001 2.45 26.1434 2.15 26.4301C1.85 26.7234 1.7 27.1367 1.7 27.6701C1.7 27.9634 1.74 28.2367 1.82 28.4901C1.90667 28.7501 2.04667 28.9967 2.24 29.2301L1.55 29.5601C1.34333 29.3267 1.18333 29.0434 1.07 28.7101C0.963332 28.3767 0.909999 28.0234 0.909999 27.6501ZM0.999999 30.7791L4.83 30.7791C5.02333 30.7791 5.22 30.7691 5.42 30.7491C5.62667 30.7357 5.83333 30.7191 6.04 30.6991L6.04 31.6791L4.98 31.7691L4.98 31.6491C5.34667 31.7891 5.63 32.0024 5.83 32.2891C6.03 32.5824 6.13 32.9324 6.13 33.3391C6.13 33.7524 6.03 34.0891 5.83 34.3491C5.63667 34.6157 5.33667 34.7991 4.93 34.8991L4.93 34.7391C5.29667 34.8724 5.58667 35.0991 5.8 35.4191C6.02 35.7391 6.13 36.1091 6.13 36.5291C6.13 37.0891 5.96667 37.5091 5.64 37.7891C5.31333 38.0691 4.80667 38.2091 4.12 38.2091L0.999998 38.2091L0.999998 37.1991L4.07 37.1991C4.51 37.1991 4.82667 37.1224 5.02 36.9691C5.22 36.8224 5.32 36.5824 5.32 36.2491C5.32 35.8624 5.18667 35.5557 4.92 35.3291C4.65333 35.1024 4.29333 34.9891 3.84 34.9891L0.999998 34.9891L0.999999 33.9791L4.07 33.9791C4.51 33.9791 4.82667 33.9024 5.02 33.7491C5.22 33.6024 5.32 33.3624 5.32 33.0291C5.32 32.6424 5.18667 32.3391 4.92 32.1191C4.65333 31.8991 4.29333 31.7891 3.84 31.7891L0.999999 31.7891L0.999999 30.7791ZM0.909998 44.282C0.909998 43.7354 1.05666 43.322 1.35 43.042C1.65 42.762 2.09666 42.622 2.69 42.622L5.26 42.622L5.26 41.642L6.04 41.642L6.04 42.622L7.37 42.622L7.64 43.632L6.04 43.632L6.04 45.032L5.26 45.032L5.26 43.632L2.78 43.632C2.40666 43.632 2.14 43.6987 1.98 43.832C1.82 43.9654 1.74 44.1587 1.74 44.412C1.74 44.5387 1.75 44.6487 1.77 44.742C1.79666 44.842 1.82666 44.932 1.86 45.012L1.04 45.012C0.999998 44.912 0.969998 44.7954 0.949998 44.662C0.923331 44.5287 0.909998 44.402 0.909998 44.282ZM0.909998 48.066C0.909998 47.566 1.01333 47.1327 1.22 46.766C1.43333 46.3993 1.73333 46.116 2.12 45.916C2.51333 45.716 2.98 45.616 3.52 45.616C4.06 45.616 4.52333 45.716 4.91 45.916C5.30333 46.116 5.60333 46.3993 5.81 46.766C6.02333 47.1327 6.13 47.566 6.13 48.066C6.13 48.566 6.02333 48.9993 5.81 49.366C5.60333 49.7393 5.30333 50.026 4.91 50.226C4.52333 50.4327 4.06 50.536 3.52 50.536C2.98 50.536 2.51333 50.4327 2.12 50.226C1.73333 50.026 1.43333 49.7393 1.22 49.366C1.01333 48.9993 0.909998 48.566 0.909998 48.066ZM1.7 48.066C1.7 48.506 1.85333 48.856 2.16 49.116C2.46666 49.376 2.92 49.506 3.52 49.506C4.12 49.506 4.57 49.376 4.87 49.116C5.17666 48.856 5.33 48.506 5.33 48.066C5.33 47.6327 5.17666 47.286 4.87 47.026C4.57 46.766 4.12 46.636 3.52 46.636C2.92 46.636 2.46666 46.7627 2.16 47.016C1.85333 47.276 1.7 47.626 1.7 48.066ZM0.909998 56.1126C0.909998 55.6926 0.963331 55.3059 1.07 54.9526C1.17666 54.5992 1.32666 54.3059 1.52 54.0726L2.21 54.3826C2.02333 54.6292 1.88333 54.9026 1.79 55.2026C1.69666 55.5026 1.65 55.8092 1.65 56.1226C1.65 56.4892 1.71333 56.7659 1.84 56.9526C1.97333 57.1392 2.15333 57.2326 2.38 57.2326C2.55333 57.2326 2.69333 57.1726 2.8 57.0526C2.90666 56.9392 2.98666 56.7492 3.04 56.4826L3.23 55.5226C3.32333 55.0959 3.48333 54.7726 3.71 54.5526C3.93666 54.3326 4.22666 54.2226 4.58 54.2226C4.88 54.2226 5.14666 54.3026 5.38 54.4626C5.61333 54.6292 5.79666 54.8626 5.93 55.1626C6.06333 55.4692 6.13 55.8259 6.13 56.2326C6.13 56.6059 6.07666 56.9526 5.97 57.2726C5.86333 57.5926 5.71 57.8592 5.51 58.0726L4.84 57.7526C5.01333 57.5459 5.14666 57.3126 5.24 57.0526C5.34 56.7926 5.39 56.5292 5.39 56.2626C5.39 55.8892 5.32 55.6126 5.18 55.4326C5.04 55.2526 4.85666 55.1626 4.63 55.1626C4.45666 55.1626 4.31333 55.2159 4.2 55.3226C4.09333 55.4359 4.01 55.6126 3.95 55.8526L3.76 56.8126C3.66666 57.2659 3.51333 57.6059 3.3 57.8326C3.08666 58.0592 2.8 58.1726 2.44 58.1726C2.12666 58.1726 1.85333 58.0859 1.62 57.9126C1.38666 57.7392 1.21 57.4992 1.09 57.1926C0.969998 56.8859 0.909998 56.5259 0.909998 56.1126ZM0.909997 61.523C0.909997 61.023 1.01333 60.5897 1.22 60.223C1.43333 59.8564 1.73333 59.573 2.12 59.373C2.51333 59.173 2.98 59.073 3.52 59.073C4.06 59.073 4.52333 59.173 4.91 59.373C5.30333 59.573 5.60333 59.8564 5.81 60.223C6.02333 60.5897 6.13 61.023 6.13 61.523C6.13 62.023 6.02333 62.4564 5.81 62.823C5.60333 63.1964 5.30333 63.483 4.91 63.683C4.52333 63.8897 4.06 63.993 3.52 63.993C2.98 63.993 2.51333 63.8897 2.12 63.683C1.73333 63.483 1.43333 63.1964 1.22 62.823C1.01333 62.4564 0.909997 62.023 0.909997 61.523ZM1.7 61.523C1.7 61.963 1.85333 62.313 2.16 62.573C2.46666 62.833 2.92 62.963 3.52 62.963C4.12 62.963 4.57 62.833 4.87 62.573C5.17666 62.313 5.33 61.963 5.33 61.523C5.33 61.0897 5.17666 60.743 4.87 60.483C4.57 60.223 4.12 60.093 3.52 60.093C2.92 60.093 2.46666 60.2197 2.16 60.473C1.85333 60.733 1.7 61.083 1.7 61.523ZM0.999997 65.1736L8.36 65.1736L8.36 66.1836L0.999997 66.1836L0.999997 65.1736ZM0.999997 69.1438L6.04 66.9838L6.04 68.0638L1.83 69.7638L1.83 69.4738L6.04 71.2038L6.04 72.2338L0.999997 70.0638L0.999997 69.1438ZM0.909997 75.277C0.909997 74.4637 1.14 73.8237 1.6 73.357C2.06 72.8904 2.69666 72.657 3.51 72.657C4.03666 72.657 4.49666 72.757 4.89 72.957C5.28333 73.1637 5.58666 73.447 5.8 73.807C6.02 74.1737 6.13 74.597 6.13 75.077C6.13 75.5504 6.03 75.947 5.83 76.267C5.63 76.587 5.34666 76.8304 4.98 76.997C4.62 77.1637 4.19333 77.247 3.7 77.247L3.38 77.247L3.38 73.447L3.96 73.447L3.96 76.557L3.83 76.387C4.33 76.387 4.71666 76.2737 4.99 76.047C5.27 75.827 5.41 75.507 5.41 75.087C5.41 74.6204 5.24666 74.2604 4.92 74.007C4.6 73.7537 4.15666 73.627 3.59 73.627L3.49 73.627C2.89666 73.627 2.45 73.7704 2.15 74.057C1.85 74.3504 1.7 74.7637 1.7 75.297C1.7 75.5904 1.74 75.8637 1.82 76.117C1.90666 76.377 2.04666 76.6237 2.24 76.857L1.55 77.187C1.34333 76.9537 1.18333 76.6704 1.07 76.337C0.96333 76.0037 0.909997 75.6504 0.909997 75.277Z" fill="black"/>
</svg>
