<svg width="9" height="166" viewBox="0 0 9 166" fill="none" xmlns="http://www.w3.org/2000/svg">
<path d="M1 0.83L8.05 0.83L8.05 5.45L7.22 5.45L7.22 1.84L5 1.84L5 5.22L4.16 5.22L4.16 1.84L1.84 1.84L1.84 5.45L1 5.45L1 0.83ZM1 6.89937L5.26 6.89937L5.26 5.91937L6.04 5.91937L6.04 7.17937L5.78 6.89937L6.58 6.89937C7.17333 6.89937 7.62333 7.04937 7.93 7.34937C8.24333 7.64937 8.4 8.08938 8.4 8.66938C8.4 8.80938 8.39 8.95604 8.37 9.10938C8.35 9.26271 8.31667 9.38938 8.27 9.48937L7.45 9.48937C7.48333 9.40937 7.51 9.30937 7.53 9.18937C7.55667 9.07604 7.57 8.95938 7.57 8.83937C7.57 8.64604 7.53 8.47938 7.45 8.33937C7.37667 8.19938 7.26333 8.08937 7.11 8.00937C6.95667 7.93604 6.76 7.89937 6.52 7.89937L5.84 7.89937L6.04 7.74937L6.04 9.26938L5.26 9.26937L5.26 7.90937L1 7.90937L1 6.89937ZM1 10.2295L5.26 10.2295L5.26 9.24945L6.04 9.24945L6.04 10.5095L5.78 10.2295L6.58 10.2295C7.17333 10.2295 7.62333 10.3795 7.93 10.6795C8.24333 10.9795 8.4 11.4195 8.4 11.9995C8.4 12.1395 8.39 12.2861 8.37 12.4395C8.35 12.5928 8.31667 12.7195 8.27 12.8195L7.45 12.8195C7.48333 12.7395 7.51 12.6395 7.53 12.5195C7.55667 12.4061 7.57 12.2895 7.57 12.1695C7.57 11.9761 7.53 11.8095 7.45 11.6695C7.37667 11.5295 7.26333 11.4195 7.11 11.3395C6.95667 11.2661 6.76 11.2295 6.52 11.2295L5.84 11.2295L6.04 11.0795L6.04 12.5995L5.26 12.5995L5.26 11.2395L1 11.2395L1 10.2295ZM0.909999 15.4684C0.909999 14.9684 1.01333 14.535 1.22 14.1684C1.43333 13.8017 1.73333 13.5184 2.12 13.3184C2.51333 13.1184 2.98 13.0184 3.52 13.0184C4.06 13.0184 4.52333 13.1184 4.91 13.3184C5.30333 13.5184 5.60333 13.8017 5.81 14.1684C6.02333 14.535 6.13 14.9684 6.13 15.4684C6.13 15.9684 6.02333 16.4017 5.81 16.7684C5.60333 17.1417 5.30333 17.4284 4.91 17.6284C4.52333 17.835 4.06 17.9384 3.52 17.9384C2.98 17.9384 2.51333 17.835 2.12 17.6284C1.73333 17.4284 1.43333 17.1417 1.22 16.7684C1.01333 16.4017 0.909999 15.9684 0.909999 15.4684ZM1.7 15.4684C1.7 15.9084 1.85333 16.2584 2.16 16.5184C2.46667 16.7784 2.92 16.9084 3.52 16.9084C4.12 16.9084 4.57 16.7784 4.87 16.5184C5.17667 16.2584 5.33 15.9084 5.33 15.4684C5.33 15.035 5.17667 14.6884 4.87 14.4284C4.57 14.1684 4.12 14.0384 3.52 14.0384C2.92 14.0384 2.46667 14.165 2.16 14.4184C1.85333 14.6784 1.7 15.0284 1.7 15.4684ZM0.999999 19.0989L4.79 19.0989C4.99667 19.0989 5.20333 19.0922 5.41 19.0789C5.62333 19.0722 5.83333 19.0589 6.04 19.0389L6.04 20.0189L4.74 20.1289L4.74 19.9689C5.05333 20.0356 5.31333 20.1489 5.52 20.3089C5.72667 20.4689 5.88 20.6622 5.98 20.8889C6.08 21.1222 6.13 21.3656 6.13 21.6189C6.13 21.7256 6.12333 21.8156 6.11 21.8889C6.10333 21.9622 6.09 22.0356 6.07 22.1089L5.17 22.0989C5.21667 21.9856 5.24333 21.8856 5.25 21.7989C5.26333 21.7189 5.27 21.6189 5.27 21.4989C5.27 21.2056 5.20333 20.9556 5.07 20.7489C4.94333 20.5422 4.77 20.3856 4.55 20.2789C4.33 20.1722 4.09333 20.1189 3.84 20.1189L0.999999 20.1189L0.999999 19.0989ZM0.909999 25.1219C0.909999 24.5752 1.05667 24.1619 1.35 23.8819C1.65 23.6019 2.09667 23.4619 2.69 23.4619L5.26 23.4619L5.26 22.4819L6.04 22.4819L6.04 23.4619L7.37 23.4619L7.64 24.4719L6.04 24.4719L6.04 25.8719L5.26 25.8719L5.26 24.4719L2.78 24.4719C2.40667 24.4719 2.14 24.5385 1.98 24.6719C1.82 24.8052 1.74 24.9985 1.74 25.2519C1.74 25.3785 1.75 25.4885 1.77 25.5819C1.79667 25.6819 1.82667 25.7719 1.86 25.8519L1.04 25.8519C0.999999 25.7519 0.969999 25.6352 0.949999 25.5019C0.923332 25.3685 0.909999 25.2419 0.909999 25.1219ZM0.909999 28.5247C0.909999 28.1047 0.963332 27.718 1.07 27.3647C1.17667 27.0114 1.32667 26.718 1.52 26.4847L2.21 26.7947C2.02333 27.0414 1.88333 27.3147 1.79 27.6147C1.69667 27.9147 1.65 28.2214 1.65 28.5347C1.65 28.9014 1.71333 29.178 1.84 29.3647C1.97333 29.5514 2.15333 29.6447 2.38 29.6447C2.55333 29.6447 2.69333 29.5847 2.8 29.4647C2.90667 29.3514 2.98667 29.1614 3.04 28.8947L3.23 27.9347C3.32333 27.508 3.48333 27.1847 3.71 26.9647C3.93667 26.7447 4.22667 26.6347 4.58 26.6347C4.88 26.6347 5.14667 26.7147 5.38 26.8747C5.61333 27.0414 5.79667 27.2747 5.93 27.5747C6.06333 27.8814 6.13 28.238 6.13 28.6447C6.13 29.018 6.07667 29.3647 5.97 29.6847C5.86333 30.0047 5.71 30.2714 5.51 30.4847L4.84 30.1647C5.01333 29.958 5.14667 29.7247 5.24 29.4647C5.34 29.2047 5.39 28.9414 5.39 28.6747C5.39 28.3014 5.32 28.0247 5.18 27.8447C5.04 27.6647 4.85667 27.5747 4.63 27.5747C4.45667 27.5747 4.31333 27.628 4.2 27.7347C4.09333 27.848 4.01 28.0247 3.95 28.2647L3.76 29.2247C3.66667 29.678 3.51333 30.018 3.3 30.2447C3.08667 30.4714 2.8 30.5847 2.44 30.5847C2.12667 30.5847 1.85333 30.498 1.62 30.3247C1.38667 30.1514 1.21 29.9114 1.09 29.6047C0.969999 29.298 0.909999 28.938 0.909999 28.5247ZM0.999998 36.2212L7.18 36.2212L7.18 33.8112L8.05 33.8112L8.05 39.6712L7.18 39.6712L7.18 37.2612L0.999998 37.2612L0.999998 36.2212ZM0.999998 40.5545L8.36 40.5545L8.36 41.5645L4.97 41.5645L4.97 41.4245C5.35 41.5711 5.63667 41.8078 5.83 42.1345C6.03 42.4611 6.13 42.8378 6.13 43.2645C6.13 43.8645 5.96333 44.3111 5.63 44.6045C5.30333 44.8978 4.80666 45.0445 4.14 45.0445L0.999998 45.0445L0.999998 44.0345L4.08 44.0345C4.51333 44.0345 4.82666 43.9478 5.02 43.7745C5.22 43.6078 5.32 43.3411 5.32 42.9745C5.32 42.5478 5.18666 42.2045 4.92 41.9445C4.66 41.6911 4.31333 41.5645 3.88 41.5645L0.999998 41.5645L0.999998 40.5545ZM0.909998 48.4122C0.909998 47.9655 1.01333 47.5755 1.22 47.2422C1.42666 46.9089 1.72666 46.6489 2.12 46.4622C2.51333 46.2822 2.98 46.1922 3.52 46.1922C4.06666 46.1922 4.53333 46.2822 4.92 46.4622C5.30666 46.6489 5.60333 46.9089 5.81 47.2422C6.02333 47.5755 6.13 47.9655 6.13 48.4122C6.13 48.8522 6.02 49.2355 5.8 49.5622C5.58 49.8889 5.28 50.1055 4.9 50.2122L4.9 50.1022L6.04 50.2022L6.04 51.1822C5.83333 51.1622 5.62666 51.1422 5.42 51.1222C5.22 51.1089 5.02333 51.1022 4.83 51.1022L0.999998 51.1022L0.999998 50.0922L2.12 50.0922L2.12 50.2022C1.74666 50.0955 1.45 49.8755 1.23 49.5422C1.01666 49.2155 0.909998 48.8389 0.909998 48.4122ZM1.7 48.6622C1.7 49.0955 1.85333 49.4422 2.16 49.7022C2.46666 49.9689 2.92 50.1022 3.52 50.1022C4.12 50.1022 4.57 49.9689 4.87 49.7022C5.17666 49.4422 5.33 49.0955 5.33 48.6622C5.33 48.2222 5.17666 47.8689 4.87 47.6022C4.57 47.3422 4.12 47.2122 3.52 47.2122C2.92 47.2122 2.46666 47.3422 2.16 47.6022C1.85333 47.8622 1.7 48.2155 1.7 48.6622ZM0.909998 54.5359C0.909998 53.9893 1.05666 53.5759 1.35 53.2959C1.65 53.0159 2.09666 52.8759 2.69 52.8759L5.26 52.8759L5.26 51.8959L6.04 51.8959L6.04 52.8759L7.37 52.8759L7.64 53.8859L6.04 53.8859L6.04 55.2859L5.26 55.2859L5.26 53.8859L2.78 53.8859C2.40666 53.8859 2.14 53.9526 1.98 54.0859C1.82 54.2193 1.74 54.4126 1.74 54.6659C1.74 54.7926 1.75 54.9026 1.77 54.9959C1.79666 55.0959 1.82666 55.1859 1.86 55.2659L1.04 55.2659C0.999998 55.1659 0.969998 55.0493 0.949998 54.9159C0.923331 54.7826 0.909998 54.6559 0.909998 54.5359ZM0.999997 58.8748L4.83 58.8748C5.02333 58.8748 5.22 58.8648 5.42 58.8448C5.62666 58.8314 5.83333 58.8148 6.04 58.7948L6.04 59.7748L4.98 59.8648L4.98 59.7448C5.34666 59.8848 5.63 60.0981 5.83 60.3848C6.03 60.6781 6.13 61.0281 6.13 61.4348C6.13 61.8481 6.03 62.1848 5.83 62.4448C5.63666 62.7114 5.33666 62.8948 4.93 62.9948L4.93 62.8348C5.29666 62.9681 5.58666 63.1948 5.8 63.5148C6.02 63.8348 6.13 64.2048 6.13 64.6248C6.13 65.1848 5.96666 65.6048 5.64 65.8848C5.31333 66.1648 4.80666 66.3048 4.12 66.3048L0.999997 66.3048L0.999997 65.2948L4.07 65.2948C4.51 65.2948 4.82666 65.2181 5.02 65.0648C5.22 64.9181 5.32 64.6781 5.32 64.3448C5.32 63.9581 5.18666 63.6514 4.92 63.4248C4.65333 63.1981 4.29333 63.0848 3.84 63.0848L0.999997 63.0848L0.999997 62.0748L4.07 62.0748C4.51 62.0748 4.82666 61.9981 5.02 61.8448C5.22 61.6981 5.32 61.4581 5.32 61.1248C5.32 60.7381 5.18666 60.4348 4.92 60.2148C4.65333 59.9948 4.29333 59.8848 3.84 59.8848L0.999997 59.8848L0.999997 58.8748ZM0.909997 69.6817C0.909997 69.2351 1.01333 68.8451 1.22 68.5117C1.42666 68.1784 1.72666 67.9184 2.12 67.7317C2.51333 67.5517 2.98 67.4617 3.52 67.4617C4.06666 67.4617 4.53333 67.5517 4.92 67.7317C5.30666 67.9184 5.60333 68.1784 5.81 68.5117C6.02333 68.8451 6.13 69.2351 6.13 69.6817C6.13 70.1217 6.02 70.5051 5.8 70.8317C5.58 71.1584 5.28 71.3751 4.9 71.4817L4.9 71.3717L6.04 71.4717L6.04 72.4517C5.83333 72.4317 5.62666 72.4117 5.42 72.3917C5.22 72.3784 5.02333 72.3717 4.83 72.3717L0.999997 72.3717L0.999997 71.3617L2.12 71.3617L2.12 71.4717C1.74666 71.3651 1.45 71.1451 1.23 70.8117C1.01666 70.4851 0.909997 70.1084 0.909997 69.6817ZM1.7 69.9317C1.7 70.3651 1.85333 70.7117 2.16 70.9717C2.46666 71.2384 2.92 71.3717 3.52 71.3717C4.12 71.3717 4.57 71.2384 4.87 70.9717C5.17666 70.7117 5.33 70.3651 5.33 69.9317C5.33 69.4917 5.17666 69.1384 4.87 68.8717C4.57 68.6117 4.12 68.4817 3.52 68.4817C2.92 68.4817 2.46666 68.6117 2.16 68.8717C1.85333 69.1317 1.7 69.4851 1.7 69.9317ZM0.999997 73.8455L8.36 73.8455L8.36 74.8555L3.84 74.8555L3.84 74.8755L6.04 77.0755L6.04 78.3255L3.39 75.6655L3.84 75.6755L0.999997 78.5455L0.999997 77.2655L3.31 74.8755L3.31 74.8555L0.999997 74.8555L0.999997 73.8455ZM0.909996 81.3903C0.909996 80.577 1.14 79.937 1.6 79.4703C2.06 79.0036 2.69666 78.7703 3.51 78.7703C4.03666 78.7703 4.49666 78.8703 4.89 79.0703C5.28333 79.277 5.58666 79.5603 5.8 79.9203C6.02 80.287 6.13 80.7103 6.13 81.1903C6.13 81.6636 6.03 82.0603 5.83 82.3803C5.63 82.7003 5.34666 82.9436 4.98 83.1103C4.62 83.277 4.19333 83.3603 3.7 83.3603L3.38 83.3603L3.38 79.5603L3.96 79.5603L3.96 82.6703L3.83 82.5003C4.33 82.5003 4.71666 82.387 4.99 82.1603C5.27 81.9403 5.41 81.6203 5.41 81.2003C5.41 80.7336 5.24666 80.3736 4.92 80.1203C4.6 79.867 4.15666 79.7403 3.59 79.7403L3.49 79.7403C2.89666 79.7403 2.45 79.8836 2.15 80.1703C1.85 80.4636 1.7 80.877 1.7 81.4103C1.7 81.7036 1.74 81.977 1.82 82.2303C1.90666 82.4903 2.04666 82.737 2.24 82.9703L1.55 83.3003C1.34333 83.067 1.18333 82.7836 1.07 82.4503C0.96333 82.117 0.909996 81.7636 0.909996 81.3903ZM0.909996 89.1453C0.909996 88.5986 1.05666 88.1853 1.35 87.9053C1.65 87.6253 2.09666 87.4853 2.69 87.4853L5.26 87.4853L5.26 86.5053L6.04 86.5053L6.04 87.4853L7.37 87.4853L7.64 88.4953L6.04 88.4953L6.04 89.8953L5.26 89.8953L5.26 88.4953L2.78 88.4953C2.40666 88.4953 2.14 88.562 1.98 88.6953C1.82 88.8286 1.74 89.022 1.74 89.2753C1.74 89.402 1.75 89.512 1.77 89.6053C1.79666 89.7053 1.82666 89.7953 1.86 89.8753L1.04 89.8753C0.999996 89.7753 0.969996 89.6586 0.949996 89.5253C0.923329 89.392 0.909996 89.2653 0.909996 89.1453ZM0.999996 90.8181L8.36 90.8181L8.36 91.8281L4.97 91.8281L4.97 91.6881C5.35 91.8348 5.63666 92.0715 5.83 92.3981C6.03 92.7248 6.13 93.1015 6.13 93.5281C6.13 94.1281 5.96333 94.5748 5.63 94.8681C5.30333 95.1615 4.80666 95.3081 4.14 95.3081L0.999996 95.3081L0.999996 94.2981L4.08 94.2981C4.51333 94.2981 4.82666 94.2115 5.02 94.0381C5.22 93.8715 5.32 93.6048 5.32 93.2381C5.32 92.8115 5.18666 92.4681 4.92 92.2081C4.66 91.9548 4.31333 91.8281 3.88 91.8281L0.999996 91.8281L0.999996 90.8181ZM0.909996 99.0759C0.909996 98.2625 1.14 97.6225 1.6 97.1559C2.06 96.6892 2.69666 96.4559 3.51 96.4559C4.03666 96.4559 4.49666 96.5559 4.89 96.7559C5.28333 96.9625 5.58666 97.2459 5.8 97.6059C6.02 97.9725 6.13 98.3959 6.13 98.8759C6.13 99.3492 6.03 99.7459 5.83 100.066C5.63 100.386 5.34666 100.629 4.98 100.796C4.62 100.963 4.19333 101.046 3.7 101.046L3.38 101.046L3.38 97.2459L3.96 97.2459L3.96 100.356L3.83 100.186C4.33 100.186 4.71666 100.073 4.99 99.8459C5.27 99.6259 5.41 99.3059 5.41 98.8859C5.41 98.4192 5.24666 98.0592 4.92 97.8059C4.6 97.5525 4.15666 97.4259 3.59 97.4259L3.49 97.4259C2.89666 97.4259 2.45 97.5692 2.15 97.8559C1.85 98.1492 1.7 98.5625 1.7 99.0959C1.7 99.3892 1.74 99.6625 1.82 99.9159C1.90666 100.176 2.04666 100.423 2.24 100.656L1.55 100.986C1.34333 100.753 1.18333 100.469 1.07 100.136C0.963329 99.8025 0.909996 99.4492 0.909996 99.0759ZM0.909995 105.465C0.909995 104.745 1.05666 104.132 1.35 103.625C1.64333 103.118 2.06 102.728 2.6 102.455C3.14666 102.188 3.79 102.055 4.53 102.055C5.27 102.055 5.91 102.188 6.45 102.455C6.99 102.728 7.40666 103.118 7.7 103.625C7.99333 104.132 8.14 104.745 8.14 105.465C8.14 105.965 8.06666 106.412 7.92 106.805C7.77333 107.198 7.56 107.542 7.28 107.835L6.45 107.475C6.72333 107.155 6.92 106.842 7.04 106.535C7.16 106.235 7.22 105.885 7.22 105.485C7.22 104.725 6.98666 104.145 6.52 103.745C6.05333 103.345 5.39 103.145 4.53 103.145C3.67 103.145 3.00333 103.345 2.53 103.745C2.06333 104.145 1.83 104.725 1.83 105.485C1.83 105.885 1.89 106.235 2.01 106.535C2.13 106.842 2.33 107.155 2.61 107.475L1.78 107.835C1.5 107.542 1.28333 107.198 1.13 106.805C0.983329 106.412 0.909995 105.965 0.909995 105.465ZM0.999995 109.031L4.79 109.031C4.99666 109.031 5.20333 109.024 5.41 109.011C5.62333 109.004 5.83333 108.991 6.04 108.971L6.04 109.951L4.74 110.061L4.74 109.901C5.05333 109.967 5.31333 110.081 5.52 110.241C5.72666 110.401 5.88 110.594 5.98 110.821C6.08 111.054 6.13 111.297 6.13 111.551C6.13 111.657 6.12333 111.747 6.11 111.821C6.10333 111.894 6.09 111.967 6.07 112.041L5.17 112.031C5.21666 111.917 5.24333 111.817 5.25 111.731C5.26333 111.651 5.27 111.551 5.27 111.431C5.27 111.137 5.20333 110.887 5.07 110.681C4.94333 110.474 4.77 110.317 4.55 110.211C4.33 110.104 4.09333 110.051 3.84 110.051L0.999995 110.051L0.999995 109.031ZM0.909995 115.082C0.909995 114.268 1.14 113.628 1.6 113.162C2.06 112.695 2.69666 112.462 3.51 112.462C4.03666 112.462 4.49666 112.562 4.89 112.762C5.28333 112.968 5.58666 113.252 5.8 113.612C6.02 113.978 6.13 114.402 6.13 114.882C6.13 115.355 6.03 115.752 5.83 116.072C5.63 116.392 5.34666 116.635 4.98 116.802C4.62 116.968 4.19333 117.052 3.69999 117.052L3.37999 117.052L3.38 113.252L3.96 113.252L3.95999 116.362L3.83 116.192C4.33 116.192 4.71666 116.078 4.99 115.852C5.27 115.632 5.41 115.312 5.41 114.892C5.41 114.425 5.24666 114.065 4.92 113.812C4.6 113.558 4.15666 113.432 3.59 113.432L3.49 113.432C2.89666 113.432 2.45 113.575 2.15 113.862C1.85 114.155 1.69999 114.568 1.69999 115.102C1.69999 115.395 1.73999 115.668 1.81999 115.922C1.90666 116.182 2.04666 116.428 2.23999 116.662L1.54999 116.992C1.34333 116.758 1.18333 116.475 1.06999 116.142C0.963328 115.808 0.909995 115.455 0.909995 115.082ZM0.909995 120.141C0.909995 119.694 1.01333 119.304 1.21999 118.971C1.42666 118.637 1.72666 118.377 2.11999 118.191C2.51333 118.011 2.97999 117.921 3.51999 117.921C4.06666 117.921 4.53333 118.011 4.92 118.191C5.30666 118.377 5.60333 118.637 5.81 118.971C6.02333 119.304 6.12999 119.694 6.12999 120.141C6.12999 120.581 6.01999 120.964 5.79999 121.291C5.57999 121.617 5.27999 121.834 4.89999 121.941L4.89999 121.831L6.03999 121.931L6.03999 122.911C5.83333 122.891 5.62666 122.871 5.41999 122.851C5.21999 122.837 5.02333 122.831 4.82999 122.831L0.999995 122.831L0.999995 121.821L2.11999 121.821L2.11999 121.931C1.74666 121.824 1.44999 121.604 1.22999 121.271C1.01666 120.944 0.909995 120.567 0.909995 120.141ZM1.69999 120.391C1.69999 120.824 1.85333 121.171 2.15999 121.431C2.46666 121.697 2.91999 121.831 3.51999 121.831C4.11999 121.831 4.56999 121.697 4.86999 121.431C5.17666 121.171 5.32999 120.824 5.33 120.391C5.33 119.951 5.17666 119.597 4.87 119.331C4.56999 119.071 4.11999 118.941 3.51999 118.941C2.91999 118.941 2.46666 119.071 2.15999 119.331C1.85333 119.591 1.69999 119.944 1.69999 120.391ZM0.909994 126.264C0.909994 125.718 1.05666 125.304 1.34999 125.024C1.64999 124.744 2.09666 124.604 2.68999 124.604L5.25999 124.604L5.25999 123.624L6.03999 123.624L6.03999 124.604L7.36999 124.604L7.63999 125.614L6.03999 125.614L6.03999 127.014L5.25999 127.014L5.25999 125.614L2.77999 125.614C2.40666 125.614 2.13999 125.681 1.97999 125.814C1.81999 125.948 1.73999 126.141 1.73999 126.394C1.73999 126.521 1.74999 126.631 1.76999 126.724C1.79666 126.824 1.82666 126.914 1.85999 126.994L1.03999 126.994C0.999994 126.894 0.969994 126.778 0.949994 126.644C0.923328 126.511 0.909994 126.384 0.909994 126.264ZM0.909994 130.048C0.909994 129.548 1.01333 129.115 1.21999 128.748C1.43333 128.382 1.73333 128.098 2.11999 127.898C2.51333 127.698 2.97999 127.598 3.51999 127.598C4.05999 127.598 4.52333 127.698 4.90999 127.898C5.30333 128.098 5.60333 128.382 5.80999 128.748C6.02333 129.115 6.12999 129.548 6.12999 130.048C6.12999 130.548 6.02333 130.982 5.80999 131.348C5.60333 131.722 5.30333 132.008 4.90999 132.208C4.52333 132.415 4.05999 132.518 3.51999 132.518C2.97999 132.518 2.51333 132.415 2.11999 132.208C1.73333 132.008 1.43333 131.722 1.21999 131.348C1.01333 130.982 0.909994 130.548 0.909994 130.048ZM1.69999 130.048C1.69999 130.488 1.85333 130.838 2.15999 131.098C2.46666 131.358 2.91999 131.488 3.51999 131.488C4.11999 131.488 4.56999 131.358 4.86999 131.098C5.17666 130.838 5.32999 130.488 5.32999 130.048C5.32999 129.615 5.17666 129.268 4.86999 129.008C4.56999 128.748 4.11999 128.618 3.51999 128.618C2.91999 128.618 2.46666 128.745 2.15999 128.998C1.85333 129.258 1.69999 129.608 1.69999 130.048ZM0.999994 133.679L4.78999 133.679C4.99666 133.679 5.20333 133.672 5.40999 133.659C5.62333 133.652 5.83333 133.639 6.03999 133.619L6.03999 134.599L4.73999 134.709L4.73999 134.549C5.05333 134.616 5.31333 134.729 5.51999 134.889C5.72666 135.049 5.87999 135.242 5.97999 135.469C6.07999 135.702 6.12999 135.946 6.12999 136.199C6.12999 136.306 6.12333 136.396 6.10999 136.469C6.10333 136.542 6.08999 136.616 6.06999 136.689L5.16999 136.679C5.21666 136.566 5.24333 136.466 5.24999 136.379C5.26333 136.299 5.26999 136.199 5.26999 136.079C5.26999 135.786 5.20333 135.536 5.06999 135.329C4.94333 135.122 4.76999 134.966 4.54999 134.859C4.32999 134.752 4.09333 134.699 3.83999 134.699L0.999994 134.699L0.999994 133.679ZM0.909994 141.865C0.909994 141.445 0.963327 141.058 1.06999 140.705C1.17666 140.351 1.32666 140.058 1.51999 139.825L2.20999 140.135C2.02333 140.381 1.88333 140.655 1.78999 140.955C1.69666 141.255 1.64999 141.561 1.64999 141.875C1.64999 142.241 1.71333 142.518 1.83999 142.705C1.97333 142.891 2.15333 142.985 2.37999 142.985C2.55333 142.985 2.69333 142.925 2.79999 142.805C2.90666 142.691 2.98666 142.501 3.03999 142.235L3.22999 141.275C3.32333 140.848 3.48333 140.525 3.70999 140.305C3.93666 140.085 4.22666 139.975 4.57999 139.975C4.87999 139.975 5.14666 140.055 5.37999 140.215C5.61333 140.381 5.79666 140.615 5.92999 140.915C6.06333 141.221 6.12999 141.578 6.12999 141.985C6.12999 142.358 6.07666 142.705 5.96999 143.025C5.86333 143.345 5.70999 143.611 5.50999 143.825L4.83999 143.505C5.01333 143.298 5.14666 143.065 5.23999 142.805C5.33999 142.545 5.38999 142.281 5.38999 142.015C5.38999 141.641 5.31999 141.365 5.17999 141.185C5.03999 141.005 4.85666 140.915 4.62999 140.915C4.45666 140.915 4.31333 140.968 4.19999 141.075C4.09333 141.188 4.00999 141.365 3.94999 141.605L3.75999 142.565C3.66666 143.018 3.51333 143.358 3.29999 143.585C3.08666 143.811 2.79999 143.925 2.43999 143.925C2.12666 143.925 1.85333 143.838 1.61999 143.665C1.38666 143.491 1.20999 143.251 1.08999 142.945C0.969994 142.638 0.909994 142.278 0.909994 141.865ZM0.999994 145.115L8.35999 145.115L8.35999 146.125L4.96999 146.125L4.96999 145.985C5.34999 146.132 5.63666 146.368 5.82999 146.695C6.02999 147.022 6.12999 147.398 6.12999 147.825C6.12999 148.425 5.96333 148.872 5.62999 149.165C5.30333 149.458 4.80666 149.605 4.13999 149.605L0.999993 149.605L0.999994 148.595L4.07999 148.595C4.51333 148.595 4.82666 148.508 5.01999 148.335C5.21999 148.168 5.31999 147.902 5.31999 147.535C5.31999 147.108 5.18666 146.765 4.91999 146.505C4.65999 146.252 4.31333 146.125 3.87999 146.125L0.999994 146.125L0.999994 145.115ZM0.999993 151.043L6.03999 151.043L6.03999 152.053L0.999993 152.053L0.999993 151.043ZM7.08999 150.963L8.13999 150.963L8.13999 152.133L7.08999 152.133L7.08999 150.963ZM0.999993 153.533L4.82999 153.533C5.02333 153.533 5.21999 153.523 5.41999 153.503C5.62666 153.49 5.83333 153.473 6.03999 153.453L6.03999 154.433L4.97999 154.523L4.97999 154.403C5.35333 154.556 5.63666 154.793 5.82999 155.113C6.02999 155.433 6.12999 155.803 6.12999 156.223C6.12999 156.816 5.96666 157.263 5.63999 157.563C5.31333 157.87 4.80666 158.023 4.11999 158.023L0.999993 158.023L0.999993 157.013L4.05999 157.013C4.50666 157.013 4.82666 156.923 5.01999 156.743C5.21999 156.57 5.31999 156.303 5.31999 155.943C5.31999 155.516 5.18666 155.176 4.91999 154.923C4.65999 154.67 4.30666 154.543 3.85999 154.543L0.999993 154.543L0.999993 153.533ZM0.909993 161.791C0.909993 160.977 1.13999 160.337 1.59999 159.871C2.05999 159.404 2.69666 159.171 3.50999 159.171C4.03666 159.171 4.49666 159.271 4.88999 159.471C5.28333 159.677 5.58666 159.961 5.79999 160.321C6.01999 160.687 6.12999 161.111 6.12999 161.591C6.12999 162.064 6.02999 162.461 5.82999 162.781C5.62999 163.101 5.34666 163.344 4.97999 163.511C4.61999 163.677 4.19333 163.761 3.69999 163.761L3.37999 163.761L3.37999 159.961L3.95999 159.961L3.95999 163.071L3.82999 162.901C4.32999 162.901 4.71666 162.787 4.98999 162.561C5.26999 162.341 5.40999 162.021 5.40999 161.601C5.40999 161.134 5.24666 160.774 4.91999 160.521C4.59999 160.267 4.15666 160.141 3.58999 160.141L3.48999 160.141C2.89666 160.141 2.44999 160.284 2.14999 160.571C1.84999 160.864 1.69999 161.277 1.69999 161.811C1.69999 162.104 1.73999 162.377 1.81999 162.631C1.90666 162.891 2.04666 163.137 2.23999 163.371L1.54999 163.701C1.34333 163.467 1.18333 163.184 1.06999 162.851C0.963326 162.517 0.909993 162.164 0.909993 161.791ZM0.999993 164.77L2.18999 164.77L2.18999 165.96L0.999993 165.96L0.999993 164.77Z" fill="#627562"/>
</svg>
