<svg width="541" height="150" viewBox="0 0 541 150" fill="none" xmlns="http://www.w3.org/2000/svg">
<path d="M33.132 66C26.972 66 21.384 64.548 16.368 61.644C11.352 58.652 7.348 54.648 4.356 49.632C1.452 44.616 0 39.028 0 32.868C0 26.708 1.452 21.164 4.356 16.236C7.348 11.308 11.352 7.392 16.368 4.488C21.384 1.496 26.972 0 33.132 0C39.38 0 45.012 1.452 50.028 4.356C55.044 7.25999 59.004 11.22 61.908 16.236C64.9 21.164 66.396 26.708 66.396 32.868C66.396 39.028 64.9 44.616 61.908 49.632C59.004 54.648 55.044 58.652 50.028 61.644C45.012 64.548 39.38 66 33.132 66ZM33.132 52.008C36.74 52.008 39.908 51.216 42.636 49.632C45.452 47.96 47.608 45.672 49.104 42.768C50.688 39.864 51.48 36.564 51.48 32.868C51.48 29.172 50.688 25.916 49.104 23.1C47.52 20.284 45.364 18.084 42.636 16.5C39.908 14.828 36.74 13.992 33.132 13.992C29.612 13.992 26.444 14.828 23.628 16.5C20.9 18.084 18.744 20.284 17.16 23.1C15.664 25.916 14.916 29.172 14.916 32.868C14.916 36.564 15.664 39.864 17.16 42.768C18.744 45.672 20.9 47.96 23.628 49.632C26.444 51.216 29.612 52.008 33.132 52.008Z" fill="#FCF0FE"/>
<path d="M71.8709 64.68V1.32H86.3909V64.68H71.8709ZM86.3909 29.436L81.3749 26.928C81.3749 18.92 83.1349 12.452 86.6549 7.52399C90.2629 2.508 95.6749 0 102.891 0C106.059 0 108.919 0.571997 111.471 1.716C114.023 2.86 116.399 4.708 118.599 7.25999L109.095 17.028C107.951 15.796 106.675 14.916 105.267 14.388C103.859 13.86 102.231 13.596 100.383 13.596C96.3349 13.596 92.9909 14.872 90.3509 17.424C87.7109 19.976 86.3909 23.98 86.3909 29.436Z" fill="#FCF0FE"/>
<path d="M143.623 66C137.903 66 132.711 64.548 128.047 61.644C123.471 58.74 119.819 54.824 117.091 49.896C114.451 44.88 113.131 39.292 113.131 33.132C113.131 26.884 114.451 21.296 117.091 16.368C119.819 11.352 123.471 7.392 128.047 4.488C132.711 1.496 137.903 0 143.623 0C148.463 0 152.731 1.056 156.427 3.168C160.211 5.192 163.203 8.008 165.403 11.616C167.603 15.224 168.703 19.316 168.703 23.892V42.108C168.703 46.684 167.603 50.776 165.403 54.384C163.291 57.992 160.343 60.852 156.559 62.964C152.775 64.988 148.463 66 143.623 66ZM145.999 52.272C151.367 52.272 155.679 50.468 158.935 46.86C162.279 43.252 163.951 38.632 163.951 33C163.951 29.216 163.203 25.872 161.707 22.968C160.211 20.064 158.099 17.82 155.371 16.236C152.731 14.564 149.607 13.728 145.999 13.728C142.479 13.728 139.355 14.564 136.627 16.236C133.987 17.82 131.875 20.064 130.291 22.968C128.795 25.872 128.047 29.216 128.047 33C128.047 36.784 128.795 40.128 130.291 43.032C131.875 45.936 133.987 48.224 136.627 49.896C139.355 51.48 142.479 52.272 145.999 52.272ZM163.027 64.68V47.652L165.535 32.208L163.027 16.896V1.32H177.547V64.68H163.027Z" fill="#FCF0FE"/>
<path d="M238.14 65.0001V28.568C238.14 22.584 236.38 17.744 232.86 14.048C229.34 10.352 224.676 8.50405 218.868 8.50405C214.908 8.50405 211.388 9.38405 208.308 11.1441C205.316 12.8161 202.94 15.1481 201.18 18.1401C199.508 21.1321 198.672 24.608 198.672 28.568L195.24 26.5881C195.24 21.9241 196.34 17.7881 198.54 14.1801C200.74 10.4841 203.732 7.58005 207.516 5.46805C211.3 3.35605 215.612 2.30005 220.452 2.30005C225.292 2.30005 229.516 3.44405 233.124 5.73205C236.82 7.93205 239.68 10.968 241.704 14.84C243.728 18.712 244.74 23.0241 244.74 27.7761V65.0001H238.14ZM191.94 65.0001V3.62005H198.672V65.0001H191.94Z" fill="#FCF0FE"/>
<path d="M284.606 66.3201C278.622 66.3201 273.21 64.912 268.37 62.096C263.618 59.192 259.834 55.32 257.018 50.48C254.202 45.552 252.794 40.0961 252.794 34.1121C252.794 28.1281 254.202 22.76 257.018 18.008C259.834 13.168 263.618 9.34005 268.37 6.52405C273.21 3.70805 278.622 2.30005 284.606 2.30005C290.502 2.30005 295.826 3.70805 300.578 6.52405C305.418 9.34005 309.246 13.168 312.062 18.008C314.878 22.76 316.286 28.1281 316.286 34.1121C316.286 40.1841 314.878 45.64 312.062 50.48C309.246 55.32 305.418 59.192 300.578 62.096C295.826 64.912 290.502 66.3201 284.606 66.3201ZM284.606 59.9841C289.27 59.9841 293.45 58.8401 297.146 56.5521C300.93 54.2641 303.878 51.184 305.99 47.312C308.19 43.352 309.29 38.9081 309.29 33.98C309.29 29.14 308.19 24.8281 305.99 21.0441C303.878 17.2601 300.93 14.268 297.146 12.068C293.45 9.78005 289.27 8.63605 284.606 8.63605C279.854 8.63605 275.586 9.78005 271.802 12.068C268.106 14.268 265.158 17.2601 262.958 21.0441C260.758 24.8281 259.658 29.1841 259.658 34.1121C259.658 39.0401 260.758 43.44 262.958 47.312C265.158 51.184 268.106 54.2641 271.802 56.5521C275.586 58.8401 279.854 59.9841 284.606 59.9841Z" fill="#FCF0FE"/>
<path d="M343.572 65.0001L318.096 1.64007H333.144L350.304 47.7081L345.816 47.8401L362.58 1.64007H371.028L387.792 47.8401L383.304 47.7081L400.464 1.64007H415.512L390.036 65.0001H381.588L364.428 21.1761H369.18L352.02 65.0001H343.572Z" fill="#FCF0FE"/>
<path d="M442.992 66.3201C437.272 66.3201 432.08 64.8681 427.416 61.9641C422.84 59.0601 419.188 55.1441 416.46 50.2161C413.82 45.2001 412.5 39.6121 412.5 33.4521C412.5 27.2041 413.82 21.6161 416.46 16.6881C419.188 11.6721 422.84 7.71207 427.416 4.80807C432.08 1.81607 437.272 0.320068 442.992 0.320068C447.832 0.320068 452.1 1.37607 455.796 3.48807C459.58 5.51207 462.572 8.32806 464.772 11.9361C466.972 15.5441 468.072 19.6361 468.072 24.2121V42.4281C468.072 47.0041 466.972 51.0961 464.772 54.7041C462.66 58.3121 459.712 61.1721 455.928 63.2841C452.144 65.3081 447.832 66.3201 442.992 66.3201ZM445.368 52.5921C450.736 52.5921 455.048 50.7881 458.304 47.1801C461.648 43.5721 463.32 38.9521 463.32 33.3201C463.32 29.5361 462.572 26.1921 461.076 23.2881C459.58 20.3841 457.468 18.1401 454.74 16.5561C452.1 14.8841 448.976 14.0481 445.368 14.0481C441.848 14.0481 438.724 14.8841 435.996 16.5561C433.356 18.1401 431.244 20.3841 429.66 23.2881C428.164 26.1921 427.416 29.5361 427.416 33.3201C427.416 37.1041 428.164 40.4481 429.66 43.3521C431.244 46.2561 433.356 48.5441 435.996 50.2161C438.724 51.8001 441.848 52.5921 445.368 52.5921ZM462.396 65.0001V47.9721L464.904 32.5281L462.396 17.2161V1.64007H476.916V65.0001H462.396Z" fill="#FCF0FE"/>
<path fill-rule="evenodd" clip-rule="evenodd" d="M519 40C528.941 40 537 31.9411 537 22C537 12.0589 528.941 4 519 4C509.059 4 501 12.0589 501 22C501 31.9411 509.059 40 519 40ZM519 44C531.15 44 541 34.1503 541 22C541 9.84974 531.15 0 519 0C506.85 0 497 9.84974 497 22C497 34.1503 506.85 44 519 44Z" fill="#FCF0FE"/>
<path d="M519.477 33C517.343 33 515.408 32.516 513.67 31.548C511.932 30.5507 510.545 29.216 509.509 27.544C508.503 25.872 508 24.0093 508 21.956C508 19.9027 508.503 18.0547 509.509 16.412C510.545 14.7693 511.932 13.464 513.67 12.496C515.408 11.4987 517.343 11 519.477 11C521.641 11 523.592 11.484 525.33 12.452C527.068 13.42 528.439 14.74 529.445 16.412C530.482 18.0547 531 19.9027 531 21.956C531 24.0093 530.482 25.872 529.445 27.544C528.439 29.216 527.068 30.5507 525.33 31.548C523.592 32.516 521.641 33 519.477 33ZM519.477 28.336C520.727 28.336 521.824 28.072 522.769 27.544C523.745 26.9867 524.492 26.224 525.01 25.256C525.559 24.288 525.833 23.188 525.833 21.956C525.833 20.724 525.559 19.6387 525.01 18.7C524.461 17.7613 523.714 17.028 522.769 16.5C521.824 15.9427 520.727 15.664 519.477 15.664C518.258 15.664 517.16 15.9427 516.185 16.5C515.24 17.028 514.493 17.7613 513.944 18.7C513.426 19.6387 513.167 20.724 513.167 21.956C513.167 23.188 513.426 24.288 513.944 25.256C514.493 26.224 515.24 26.9867 516.185 27.544C517.16 28.072 518.258 28.336 519.477 28.336Z" fill="#FCF0FE"/>
<path d="M0.445319 130.018V117.164H9.01771V118.677H2.31937V122.725H8.59095V124.257H2.31937V128.486H9.01771V130.018H0.445319Z" fill="#FCF0FE"/>
<path d="M11.408 130.018V117.164H19.7948V118.677H13.3377V122.798H19.368V124.311H13.3377V130.018H11.408Z" fill="#FCF0FE"/>
<path d="M21.9357 130.018V117.164H30.3226V118.677H23.8654V122.798H29.8958V124.311H23.8654V130.018H21.9357Z" fill="#FCF0FE"/>
<path d="M31.7464 123.582C31.7464 122.233 31.9876 121.066 32.47 120.081C32.9525 119.097 33.6514 118.337 34.5667 117.802C35.4945 117.267 36.5954 117 37.8695 117C39.1313 117 40.2198 117.267 41.1352 117.802C42.0506 118.337 42.7557 119.097 43.2505 120.081C43.7576 121.066 44.0112 122.227 44.0112 123.564C44.0112 124.913 43.7576 126.086 43.2505 127.083C42.7557 128.067 42.0444 128.833 41.1166 129.38C40.2013 129.915 39.1189 130.182 37.8695 130.182C36.5954 130.182 35.5007 129.915 34.5853 129.38C33.6699 128.833 32.9648 128.067 32.47 127.083C31.9876 126.086 31.7464 124.919 31.7464 123.582ZM33.7689 123.582C33.7689 125.138 34.1152 126.353 34.8079 127.228C35.5007 128.104 36.5212 128.541 37.8695 128.541C39.1807 128.541 40.1951 128.11 40.9125 127.247C41.63 126.371 41.9887 125.15 41.9887 123.582C41.9887 122.014 41.63 120.798 40.9125 119.935C40.2074 119.072 39.1931 118.641 37.8695 118.641C36.5212 118.641 35.5007 119.072 34.8079 119.935C34.1152 120.798 33.7689 122.014 33.7689 123.582Z" fill="#FCF0FE"/>
<path d="M46.6515 130.018V117.164H52.1809C53.5787 117.164 54.6611 117.492 55.428 118.149C56.195 118.793 56.5784 119.698 56.5784 120.865C56.5784 121.631 56.4052 122.287 56.0589 122.834C55.7125 123.381 55.2239 123.801 54.593 124.092C53.9622 124.372 53.22 124.512 52.3664 124.512L52.6633 124.22H53.1643C53.6715 124.22 54.123 124.348 54.5188 124.603C54.927 124.858 55.261 125.265 55.5208 125.825L57.3948 130.018H55.2796L53.4241 125.806C53.2385 125.308 52.9478 124.986 52.552 124.84C52.1685 124.694 51.6923 124.621 51.1233 124.621H48.5812V130.018H46.6515ZM48.5812 123.181H51.8655C52.7932 123.181 53.4921 122.986 53.9622 122.597C54.4446 122.208 54.6858 121.649 54.6858 120.92C54.6858 120.179 54.4446 119.619 53.9622 119.243C53.4921 118.866 52.7932 118.677 51.8655 118.677H48.5812V123.181Z" fill="#FCF0FE"/>
<path d="M62.3626 130.018V118.75H57.8909V117.164H68.7641V118.75H64.2924V130.018H62.3626Z" fill="#FCF0FE"/>
<path d="M74.5331 130.182C73.4817 130.182 72.5292 130.054 71.6756 129.799C70.8221 129.532 70.0799 129.155 69.449 128.669L70.0985 127.174C70.519 127.49 70.952 127.751 71.3973 127.958C71.855 128.164 72.3374 128.322 72.8446 128.432C73.3641 128.529 73.927 128.578 74.5331 128.578C75.5722 128.578 76.3329 128.395 76.8154 128.031C77.3102 127.666 77.5576 127.186 77.5576 126.59C77.5576 126.08 77.3844 125.685 77.038 125.405C76.704 125.126 76.1103 124.901 75.2567 124.731L73.2343 124.329C72.0344 124.086 71.1375 123.691 70.5438 123.144C69.9624 122.585 69.6717 121.826 69.6717 120.865C69.6717 120.087 69.882 119.407 70.3026 118.823C70.7231 118.24 71.3045 117.79 72.0467 117.474C72.8013 117.158 73.6796 117 74.6815 117C75.6093 117 76.4628 117.134 77.2421 117.401C78.0214 117.656 78.677 118.039 79.2089 118.55L78.5781 119.99C78.0214 119.516 77.4277 119.17 76.7968 118.951C76.1659 118.72 75.4485 118.604 74.6444 118.604C73.6919 118.604 72.9436 118.799 72.3993 119.188C71.8674 119.577 71.6014 120.106 71.6014 120.774C71.6014 121.309 71.7684 121.728 72.1024 122.032C72.4488 122.336 73.0178 122.567 73.8095 122.725L75.8319 123.108C77.0813 123.363 78.0029 123.758 78.5966 124.293C79.1904 124.816 79.4873 125.539 79.4873 126.463C79.4873 127.204 79.2832 127.854 78.875 128.414C78.4791 128.973 77.9101 129.41 77.1679 129.726C76.4257 130.03 75.5474 130.182 74.5331 130.182Z" fill="#FCF0FE"/>
<path d="M89.9414 130.018V118.75H85.4696V117.164H96.3429V118.75H91.8711V130.018H89.9414Z" fill="#FCF0FE"/>
<path d="M98.1488 130.018V117.164H100.078V122.707H107.426V117.164H109.356V130.018H107.426V124.293H100.078V130.018H98.1488Z" fill="#FCF0FE"/>
<path d="M111.073 130.018L116.899 117.164H118.551L124.47 130.018H122.484L120.87 126.371L121.686 126.882H113.763L114.635 126.371L113.021 130.018H111.073ZM117.697 119.243L114.877 125.788L114.431 125.369H121.018L120.647 125.788L117.771 119.243H117.697Z" fill="#FCF0FE"/>
<path d="M127.903 130.018V118.75H123.431V117.164H134.304V118.75H129.833V130.018H127.903Z" fill="#FCF0FE"/>
<path d="M141.076 130.018V117.164H142.764L147.811 128.341H147.254L152.301 117.164H153.971V130.018H152.227V119.735H152.84L148.127 130.018H146.92L142.208 119.735H142.838V130.018H141.076Z" fill="#FCF0FE"/>
<path d="M155.739 130.018L161.565 117.164H163.217L169.136 130.018H167.15L165.536 126.371L166.352 126.882H158.429L159.301 126.371L157.687 130.018H155.739ZM162.363 119.243L159.543 125.788L159.097 125.369H165.684L165.313 125.788L162.437 119.243H162.363Z" fill="#FCF0FE"/>
<path d="M170.865 130.018V117.164H172.794V122.944H172.831L178.843 117.164H181.237L174.186 123.837L174.205 122.944L181.719 130.018H179.252L172.831 124.02H172.794V130.018H170.865Z" fill="#FCF0FE"/>
<path d="M182.896 130.018V117.164H191.469V118.677H184.77V122.725H191.042V124.257H184.77V128.486H191.469V130.018H182.896Z" fill="#FCF0FE"/>
<path d="M201.942 130.018V118.75H197.47V117.164H208.343V118.75H203.871V130.018H201.942Z" fill="#FCF0FE"/>
<path d="M210.149 130.018V117.164H212.079V122.707H219.426V117.164H221.356V130.018H219.426V124.293H212.079V130.018H210.149Z" fill="#FCF0FE"/>
<path d="M224.428 130.018V117.164H233V118.677H226.302V122.725H232.573V124.257H226.302V128.486H233V130.018H224.428Z" fill="#FCF0FE"/>
<path d="M6.32724 150C4.99128 150 3.85325 149.733 2.91313 149.198C1.97301 148.663 1.24937 147.903 0.742198 146.919C0.247399 145.922 0 144.749 0 143.4C0 142.051 0.247399 140.884 0.742198 139.899C1.24937 138.915 1.97301 138.155 2.91313 137.62C3.85325 137.085 4.99128 136.818 6.32724 136.818C7.25499 136.818 8.08378 136.952 8.81361 137.219C9.54343 137.486 10.1805 137.875 10.7248 138.386L10.0568 139.899C9.46303 139.401 8.88164 139.042 8.31262 138.823C7.75597 138.605 7.10655 138.495 6.36435 138.495C4.95417 138.495 3.87799 138.921 3.13579 139.772C2.39359 140.622 2.02249 141.832 2.02249 143.4C2.02249 144.968 2.39359 146.183 3.13579 147.046C3.87799 147.897 4.95417 148.323 6.36435 148.323C7.10655 148.323 7.75597 148.213 8.31262 147.994C8.88164 147.776 9.46303 147.411 10.0568 146.9L10.7248 148.414C10.1805 148.924 9.54343 149.319 8.81361 149.599C8.08378 149.866 7.25499 150 6.32724 150Z" fill="#FCF0FE"/>
<path d="M13.1475 149.836V136.982H18.6769C20.0747 136.982 21.1571 137.31 21.924 137.967C22.6909 138.611 23.0744 139.516 23.0744 140.683C23.0744 141.449 22.9012 142.105 22.5549 142.652C22.2085 143.199 21.7199 143.619 21.089 143.91C20.4581 144.19 19.7159 144.33 18.8624 144.33L19.1593 144.038H19.6603C20.1675 144.038 20.619 144.166 21.0148 144.421C21.423 144.676 21.757 145.083 22.0168 145.642L23.8908 149.836H21.7755L19.9201 145.624C19.7345 145.126 19.4438 144.804 19.048 144.658C18.6645 144.512 18.1883 144.439 17.6192 144.439H15.0772V149.836H13.1475ZM15.0772 142.999H18.3614C19.2892 142.999 19.9881 142.804 20.4581 142.415C20.9406 142.026 21.1818 141.467 21.1818 140.738C21.1818 139.996 20.9406 139.437 20.4581 139.061C19.9881 138.684 19.2892 138.495 18.3614 138.495H15.0772V142.999Z" fill="#FCF0FE"/>
<path d="M26.0852 149.836V136.982H34.6576V138.495H27.9593V142.543H34.2309V144.074H27.9593V148.304H34.6576V149.836H26.0852Z" fill="#FCF0FE"/>
<path d="M35.4397 149.836L41.2659 136.982H42.9173L48.8364 149.836H46.851L45.2367 146.189L46.0531 146.7H38.1302L39.0022 146.189L37.388 149.836H35.4397ZM42.0638 139.061L39.2435 145.606L38.7981 145.187H45.3851L45.014 145.606L42.138 139.061H42.0638Z" fill="#FCF0FE"/>
<path d="M52.2698 149.836V138.568H47.798V136.982H58.6712V138.568H54.1995V149.836H52.2698Z" fill="#FCF0FE"/>
<path d="M59.2164 143.4C59.2164 142.051 59.4576 140.884 59.9401 139.899C60.4225 138.915 61.1214 138.155 62.0368 137.62C62.9645 137.085 64.0654 136.818 65.3395 136.818C66.6013 136.818 67.6898 137.085 68.6052 137.62C69.5206 138.155 70.2257 138.915 70.7205 139.899C71.2277 140.884 71.4812 142.045 71.4812 143.382C71.4812 144.731 71.2277 145.904 70.7205 146.9C70.2257 147.885 69.5144 148.651 68.5867 149.198C67.6713 149.733 66.5889 150 65.3395 150C64.0654 150 62.9707 149.733 62.0553 149.198C61.1399 148.651 60.4349 147.885 59.9401 146.9C59.4576 145.904 59.2164 144.737 59.2164 143.4ZM61.2389 143.4C61.2389 144.956 61.5853 146.171 62.278 147.046C62.9707 147.921 63.9912 148.359 65.3395 148.359C66.6508 148.359 67.6651 147.928 68.3826 147.065C69.1 146.189 69.4588 144.968 69.4588 143.4C69.4588 141.832 69.1 140.616 68.3826 139.753C67.6775 138.89 66.6631 138.459 65.3395 138.459C63.9912 138.459 62.9707 138.89 62.278 139.753C61.5853 140.616 61.2389 141.832 61.2389 143.4Z" fill="#FCF0FE"/>
<path d="M74.1215 149.836V136.982H79.6509C81.0487 136.982 82.1311 137.31 82.898 137.967C83.665 138.611 84.0485 139.516 84.0485 140.683C84.0485 141.449 83.8753 142.105 83.5289 142.652C83.1826 143.199 82.6939 143.619 82.0631 143.91C81.4322 144.19 80.69 144.33 79.8365 144.33L80.1334 144.038H80.6343C81.1415 144.038 81.593 144.166 81.9889 144.421C82.3971 144.676 82.7311 145.083 82.9908 145.642L84.8649 149.836H82.7496L80.8941 145.624C80.7086 145.126 80.4179 144.804 80.022 144.658C79.6386 144.512 79.1623 144.439 78.5933 144.439H76.0513V149.836H74.1215ZM76.0513 142.999H79.3355C80.2632 142.999 80.9621 142.804 81.4322 142.415C81.9146 142.026 82.1559 141.467 82.1559 140.738C82.1559 139.996 81.9146 139.437 81.4322 139.061C80.9621 138.684 80.2632 138.495 79.3355 138.495H76.0513V142.999Z" fill="#FCF0FE"/>
<path d="M96.4222 150C95.3707 150 94.4182 149.872 93.5647 149.617C92.7112 149.35 91.969 148.973 91.3381 148.487L91.9875 146.992C92.4081 147.308 92.841 147.569 93.2864 147.776C93.7441 147.982 94.2265 148.14 94.7336 148.25C95.2532 148.347 95.816 148.396 96.4222 148.396C97.4612 148.396 98.222 148.213 98.7044 147.849C99.1992 147.484 99.4466 147.004 99.4466 146.408C99.4466 145.898 99.2734 145.503 98.9271 145.223C98.5931 144.944 97.9993 144.719 97.1458 144.548L95.1233 144.147C93.9234 143.904 93.0266 143.509 92.4328 142.962C91.8514 142.403 91.5608 141.643 91.5608 140.683C91.5608 139.905 91.771 139.225 92.1916 138.641C92.6122 138.058 93.1936 137.608 93.9358 137.292C94.6904 136.976 95.5686 136.818 96.5706 136.818C97.4983 136.818 98.3519 136.952 99.1312 137.219C99.9105 137.474 100.566 137.857 101.098 138.368L100.467 139.808C99.9105 139.334 99.3167 138.988 98.6859 138.769C98.055 138.538 97.3375 138.422 96.5335 138.422C95.581 138.422 94.8326 138.617 94.2883 139.006C93.7564 139.395 93.4905 139.924 93.4905 140.592C93.4905 141.127 93.6575 141.546 93.9915 141.85C94.3378 142.154 94.9068 142.385 95.6985 142.543L97.721 142.926C98.9704 143.181 99.8919 143.576 100.486 144.111C101.079 144.634 101.376 145.357 101.376 146.281C101.376 147.022 101.172 147.672 100.764 148.231C100.368 148.791 99.7992 149.228 99.057 149.544C98.3148 149.848 97.4365 150 96.4222 150Z" fill="#FCF0FE"/>
<path d="M103.748 149.836V136.982H105.678V142.525H113.025V136.982H114.955V149.836H113.025V144.111H105.678V149.836H103.748Z" fill="#FCF0FE"/>
<path d="M118.027 149.836V136.982H119.956V149.836H118.027Z" fill="#FCF0FE"/>
<path d="M123.028 149.836V136.982H124.512L132.546 147.338H132.082V136.982H133.882V149.836H132.416L124.401 139.48H124.827V149.836H123.028Z" fill="#FCF0FE"/>
<path d="M136.944 149.836V136.982H145.516V138.495H138.818V142.543H145.089V144.074H138.818V148.304H145.516V149.836H136.944Z" fill="#FCF0FE"/>
<path d="M147.642 149.836V147.666H149.85V149.836H147.642Z" fill="#FCF0FE"/>
</svg>
