<svg width="9" height="46" viewBox="0 0 9 46" fill="none" xmlns="http://www.w3.org/2000/svg">
<path d="M0.88 4.05C0.88 3.51667 0.973333 3.02333 1.16 2.57C1.34667 2.12333 1.60667 1.73 1.94 1.39C2.27333 1.05 2.66 0.786666 3.1 0.6C3.54667 0.413333 4.02667 0.32 4.54 0.32C5.06 0.32 5.54 0.413333 5.98 0.6C6.42 0.786667 6.80333 1.04667 7.13 1.38C7.46333 1.71333 7.72 2.10333 7.9 2.55C8.08667 3.00333 8.18 3.49667 8.18 4.03C8.18 4.55667 8.08667 5.04333 7.9 5.49C7.72 5.94333 7.46333 6.33667 7.13 6.67C6.80333 7.01 6.41667 7.27333 5.97 7.46C5.53 7.64667 5.05 7.74 4.53 7.74C4.01667 7.74 3.53667 7.64667 3.09 7.46C2.65 7.27333 2.26333 7.01333 1.93 6.68C1.60333 6.34667 1.34667 5.95333 1.16 5.5C0.973333 5.05333 0.88 4.57 0.88 4.05ZM2.31 4.03C2.31 4.45 2.40333 4.81667 2.59 5.13C2.77667 5.45 3.03667 5.69667 3.37 5.87C3.71 6.04333 4.1 6.13 4.54 6.13C4.87333 6.13 5.17333 6.08 5.44 5.98C5.71333 5.88 5.94667 5.73667 6.14 5.55C6.34 5.36333 6.49 5.14 6.59 4.88C6.69667 4.62667 6.75 4.34333 6.75 4.03C6.75 3.61 6.65667 3.24 6.47 2.92C6.29 2.60667 6.03333 2.36333 5.7 2.19C5.37333 2.01667 4.98667 1.93 4.54 1.93C4.20667 1.93 3.90333 1.98 3.63 2.08C3.35667 2.18 3.12 2.32 2.92 2.5C2.72667 2.68667 2.57667 2.91 2.47 3.17C2.36333 3.43 2.31 3.71667 2.31 4.03ZM1 8.59664L5.86 8.59664L5.86 10.1266L1 10.1266L1 8.59664ZM3.67 10.1266L4.17 9.48664C4.73667 9.61331 5.17667 9.82664 5.49 10.1266C5.80333 10.4266 5.96 10.8433 5.96 11.3766C5.96 11.61 5.92333 11.8133 5.85 11.9866C5.78333 12.1666 5.67667 12.3233 5.53 12.4566L4.38 11.5466C4.45333 11.48 4.51 11.3966 4.55 11.2966C4.59 11.1966 4.61 11.0833 4.61 10.9566C4.61 10.7033 4.53 10.5 4.37 10.3466C4.21667 10.2 3.98333 10.1266 3.67 10.1266ZM0.899999 14.7575C0.899999 14.3108 1.01 13.9108 1.23 13.5575C1.45 13.2108 1.75 12.9342 2.13 12.7275C2.51 12.5275 2.94333 12.4275 3.43 12.4275C3.91667 12.4275 4.35 12.5275 4.73 12.7275C5.11 12.9342 5.41 13.2108 5.63 13.5575C5.85 13.9108 5.96 14.3108 5.96 14.7575C5.96 15.0842 5.89667 15.3775 5.77 15.6375C5.64333 15.9042 5.46667 16.1208 5.24 16.2875C5.02 16.4542 4.76667 16.5475 4.48 16.5675L2.38 16.5675C2.09333 16.5475 1.83667 16.4542 1.61 16.2875C1.39 16.1275 1.21667 15.9142 1.09 15.6475C0.963333 15.3808 0.899999 15.0842 0.899999 14.7575ZM2.28 15.0675C2.28 15.3942 2.38667 15.6575 2.6 15.8575C2.82 16.0575 3.09667 16.1575 3.43 16.1575C3.65667 16.1575 3.85667 16.1108 4.03 16.0175C4.20333 15.9308 4.33667 15.8042 4.43 15.6375C4.53 15.4775 4.58 15.2908 4.58 15.0775C4.58 14.8642 4.53 14.6742 4.43 14.5075C4.33667 14.3475 4.20333 14.2175 4.03 14.1175C3.85667 14.0242 3.65667 13.9775 3.43 13.9775C3.21 13.9775 3.01333 14.0242 2.84 14.1175C2.66667 14.2108 2.53 14.3408 2.43 14.5075C2.33 14.6742 2.28 14.8608 2.28 15.0675ZM0.999999 16.0975L2.31 16.0975L3.49 16.3275L4.67 16.0975L5.86 16.0975L5.86 17.5975L0.999999 17.5975L0.999999 16.0975ZM0.999999 21.8848L3.77 21.8848C4.02333 21.8848 4.22667 21.8048 4.38 21.6448C4.54 21.4914 4.62 21.2948 4.62 21.0548C4.62 20.8881 4.58333 20.7414 4.51 20.6148C4.44333 20.4881 4.34333 20.3881 4.21 20.3148C4.08333 20.2414 3.93667 20.2048 3.77 20.2048L4.06 19.6148C4.44 19.6148 4.77333 19.6981 5.06 19.8648C5.34667 20.0314 5.56667 20.2614 5.72 20.5548C5.88 20.8548 5.96 21.1914 5.96 21.5648C5.96 21.9248 5.87333 22.2414 5.7 22.5148C5.53333 22.7948 5.31 23.0148 5.03 23.1748C4.75 23.3348 4.44333 23.4148 4.11 23.4148L0.999999 23.4148L0.999999 21.8848ZM0.999999 18.6748L5.86 18.6748L5.86 20.2048L0.999999 20.2048L0.999999 18.6748ZM0.889999 26.7374C0.889999 26.2374 0.999999 25.7841 1.22 25.3774C1.44667 24.9774 1.75333 24.6608 2.14 24.4274C2.52667 24.1941 2.96 24.0774 3.44 24.0774C3.92 24.0774 4.35 24.1941 4.73 24.4274C5.11 24.6608 5.41 24.9774 5.63 25.3774C5.85667 25.7774 5.97 26.2308 5.97 26.7374C5.97 27.2441 5.86 27.6974 5.64 28.0974C5.42 28.4974 5.11667 28.8141 4.73 29.0474C4.35 29.2808 3.92 29.3974 3.44 29.3974C2.96 29.3974 2.52667 29.2808 2.14 29.0474C1.75333 28.8141 1.44667 28.4974 1.22 28.0974C0.999999 27.6974 0.889999 27.2441 0.889999 26.7374ZM2.28 26.7374C2.28 26.9574 2.32667 27.1508 2.42 27.3174C2.52 27.4841 2.65667 27.6108 2.83 27.6974C3.01 27.7908 3.21333 27.8374 3.44 27.8374C3.66667 27.8374 3.86333 27.7908 4.03 27.6974C4.20333 27.6041 4.33667 27.4741 4.43 27.3074C4.53 27.1474 4.58 26.9574 4.58 26.7374C4.58 26.5241 4.53 26.3341 4.43 26.1674C4.33667 26.0008 4.20333 25.8708 4.03 25.7774C3.85667 25.6841 3.65667 25.6374 3.43 25.6374C3.21 25.6374 3.01 25.6841 2.83 25.7774C2.65667 25.8708 2.52 26.0008 2.42 26.1674C2.32667 26.3341 2.28 26.5241 2.28 26.7374ZM0.999999 31.2515L5.86 29.5715L5.86 31.0715L2.33 32.1115L2.32 31.6715L5.86 32.8215L5.86 34.0615L2.32 35.2215L2.33 34.7715L5.86 35.8215L5.86 37.3215L0.999998 35.6415L0.999998 34.3915L4.36 33.2615L4.36 33.6415L0.999999 32.4915L0.999999 31.2515ZM0.899998 39.8454C0.899998 39.3987 1.01 38.9987 1.23 38.6454C1.45 38.2987 1.75 38.0221 2.13 37.8154C2.51 37.6154 2.94333 37.5154 3.43 37.5154C3.91667 37.5154 4.35 37.6154 4.73 37.8154C5.11 38.0221 5.41 38.2987 5.63 38.6454C5.85 38.9987 5.96 39.3987 5.96 39.8454C5.96 40.1721 5.89667 40.4654 5.77 40.7254C5.64333 40.9921 5.46667 41.2087 5.24 41.3754C5.02 41.5421 4.76667 41.6354 4.48 41.6554L2.38 41.6554C2.09333 41.6354 1.83666 41.5421 1.61 41.3754C1.39 41.2154 1.21666 41.0021 1.09 40.7354C0.963332 40.4687 0.899998 40.1721 0.899998 39.8454ZM2.28 40.1554C2.28 40.4821 2.38666 40.7454 2.6 40.9454C2.82 41.1454 3.09666 41.2454 3.43 41.2454C3.65666 41.2454 3.85666 41.1987 4.03 41.1054C4.20333 41.0187 4.33667 40.8921 4.43 40.7254C4.53 40.5654 4.58 40.3787 4.58 40.1654C4.58 39.9521 4.53 39.7621 4.43 39.5954C4.33667 39.4354 4.20333 39.3054 4.03 39.2054C3.85667 39.1121 3.65667 39.0654 3.43 39.0654C3.21 39.0654 3.01333 39.1121 2.84 39.2054C2.66667 39.2987 2.53 39.4287 2.43 39.5954C2.33 39.7621 2.28 39.9487 2.28 40.1554ZM0.999998 41.1854L2.31 41.1854L3.49 41.4154L4.67 41.1854L5.86 41.1854L5.86 42.6854L0.999998 42.6854L0.999998 41.1854ZM0.889998 44.7227C0.889998 44.4627 0.979998 44.246 1.16 44.0727C1.34 43.8993 1.55666 43.8127 1.81 43.8127C2.07666 43.8127 2.29666 43.8993 2.47 44.0727C2.65 44.246 2.74 44.4627 2.74 44.7227C2.74 44.9893 2.65 45.206 2.47 45.3727C2.29666 45.546 2.07666 45.6327 1.81 45.6327C1.55666 45.6327 1.34 45.546 1.16 45.3727C0.979998 45.206 0.889998 44.9893 0.889998 44.7227Z" fill="#627562"/>
</svg>
